<svg width="18" height="18" viewBox="0 0 18 18" fill="none" xmlns="http://www.w3.org/2000/svg">
<path fill-rule="evenodd" clip-rule="evenodd" d="M8.06439 15.9206C8.40636 15.9729 8.75659 16.0001 9.11322 16.0001C12.9102 16.0001 15.9882 12.922 15.9882 9.12506C15.9882 5.32806 12.9102 2.25001 9.11322 2.25001C8.85847 2.25001 8.60693 2.26387 8.35939 2.29087C10.2429 3.71783 11.4882 6.18971 11.4882 9.00005C11.4882 11.9546 10.1118 14.5351 8.06439 15.9206ZM8.9882 18.0001C13.9588 18.0001 17.9882 13.9706 17.9882 9.00005C17.9882 4.02946 13.9588 0 8.9882 0C4.01761 0 -0.0118408 4.02946 -0.0118408 9.00005C-0.0118408 13.9706 4.01761 18.0001 8.9882 18.0001Z" fill="#FAFAFA"/>
</svg>
