<svg width="17" height="18" viewBox="0 0 17 18" fill="none" xmlns="http://www.w3.org/2000/svg">
<path fill-rule="evenodd" clip-rule="evenodd" d="M2.50432 1.49639C2.72216 0.63632 3.50134 -6.10352e-05 4.42911 -6.10352e-05C5.12504 -6.10352e-05 5.73736 0.357997 6.09187 0.899944H6.67241C7.03308 0.529803 7.53698 0.29994 8.0946 0.29994C8.91212 0.29994 9.61427 0.79406 9.91865 1.49995H10.4047C10.7093 1.30982 11.0691 1.19994 11.4546 1.19994C12.2722 1.19994 12.9743 1.69406 13.2787 2.39995H14.6004C14.6117 2.39995 14.6222 2.40299 14.6313 2.4083C14.6917 2.40278 14.7528 2.39995 14.8146 2.39995C15.9112 2.39995 16.8001 3.28887 16.8001 4.38542V10.339L16.8001 10.35L16.8001 10.361V10.4468C16.8001 10.4831 16.7991 10.5193 16.7971 10.5553C16.6777 14.6854 12.9639 18 8.40004 18C3.76083 18 0 14.575 0 10.35C0 8.31061 0.876271 6.45758 2.30463 5.0862C2.30107 7.0744 2.33465 9.12986 2.48945 9.09459C2.90396 9.00009 2.5801 2.84197 2.50432 1.49639Z" fill="#FAFAFA"/>
</svg>
