<svg width="20" height="20" viewBox="0 0 20 20" fill="none" xmlns="http://www.w3.org/2000/svg">
<rect width="20" height="20" rx="10" fill="#FAFAFA"/>
<g clip-path="url(#clip0_9_937)">
<path fill-rule="evenodd" clip-rule="evenodd" d="M12.3571 3.01383C12.3673 2.99929 12.3873 2.99576 12.4019 3.00594L13.3959 3.70199C13.4105 3.71217 13.414 3.7322 13.4038 3.74674L12.0203 5.72267C12.6929 5.93755 13.1511 6.16934 13.1511 6.16934C13.1511 6.16934 12.031 8.09604 10.1312 8.09604C8.23139 8.09604 6.8814 6.30032 6.8814 6.30032C6.8814 6.30032 7.36008 5.99484 8.06965 5.73283L6.55208 3.92428C6.54067 3.91068 6.54245 3.89041 6.55604 3.879L7.48565 3.09896C7.49926 3.08755 7.51952 3.08932 7.53093 3.10292L9.45243 5.39288C9.61695 5.37426 9.78457 5.36386 9.95372 5.36386C10.1968 5.36386 10.4396 5.38235 10.6767 5.41371L12.3571 3.01383ZM12.733 8.18729C13.2399 7.8252 14.0071 6.88015 14.0071 6.88015C14.0071 6.88015 15.9667 8.433 15.9667 11.7256C15.9667 15.0182 12.5789 16.9999 12.5789 16.9999C12.5789 16.9999 10.9603 15.3653 10.5629 13.2931C10.1656 11.221 11.1507 8.92013 11.1507 8.92013C11.1507 8.92013 12.226 8.54937 12.733 8.18729ZM7.27288 8.18729C6.7659 7.8252 5.99875 6.88015 5.99875 6.88015C5.99875 6.88015 4.03918 8.433 4.03918 11.7256C4.03918 15.0182 7.42697 16.9999 7.42697 16.9999C7.42697 16.9999 9.04558 15.3653 9.44294 13.2931C9.84027 11.221 8.85516 8.92013 8.85516 8.92013C8.85516 8.92013 7.77989 8.54937 7.27288 8.18729Z" fill="#43A047"/>
</g>
<defs>
<clipPath id="clip0_9_937">
<rect width="14" height="14" fill="white" transform="translate(3 3)"/>
</clipPath>
</defs>
</svg>
