<svg width="20" height="20" viewBox="0 0 20 20" fill="none" xmlns="http://www.w3.org/2000/svg">
<rect width="20" height="20" rx="10" fill="#FAFAFA"/>
<g clip-path="url(#clip0_9_957)">
<path fill-rule="evenodd" clip-rule="evenodd" d="M9.27233 15.3827C9.5383 15.4234 9.8107 15.4445 10.0881 15.4445C13.0413 15.4445 15.4353 13.0505 15.4353 10.0973C15.4353 7.14409 13.0413 4.75006 10.0881 4.75006C9.88994 4.75006 9.6943 4.76084 9.50177 4.78184C10.9667 5.89169 11.9353 7.81426 11.9353 10.0001C11.9353 12.298 10.8647 14.3051 9.27233 15.3827ZM9.99084 17.0001C13.8568 17.0001 16.9908 13.8661 16.9908 10.0001C16.9908 6.13407 13.8568 3.00006 9.99084 3.00006C6.12484 3.00006 2.99084 6.13407 2.99084 10.0001C2.99084 13.8661 6.12484 17.0001 9.99084 17.0001Z" fill="#546E7A"/>
</g>
<defs>
<clipPath id="clip0_9_957">
<rect width="14" height="14" fill="white" transform="translate(3 3)"/>
</clipPath>
</defs>
</svg>
