<svg width="20" height="20" viewBox="0 0 20 20" fill="none" xmlns="http://www.w3.org/2000/svg">
<rect width="20" height="20" rx="10" fill="#FAFAFA"/>
<g clip-path="url(#clip0_9_886)">
<path fill-rule="evenodd" clip-rule="evenodd" d="M10.6753 9.9694C10.7702 9.91154 10.8507 9.7903 10.9156 9.65555C11.77 10.0047 12.3704 10.8299 12.3704 11.7921C12.3704 13.0704 11.3108 14.1067 10.0038 14.1067C9.46722 14.1067 8.97238 13.9321 8.57543 13.6378C8.44522 13.5761 8.33809 13.5169 8.25043 13.4684C8.11445 13.3932 8.02528 13.3439 7.96944 13.3517C7.80623 13.3742 7.85361 13.5243 7.89668 13.6608C7.92591 13.7534 7.95317 13.8397 7.91098 13.8753C7.86685 13.9126 7.72389 13.7763 7.55685 13.6171C7.32946 13.4003 7.05745 13.1409 6.92918 13.2188C6.82776 13.2804 6.92622 13.4475 7.04675 13.6521L7.0557 13.6672C7.10661 13.7537 7.16562 13.8417 7.21946 13.9221C7.32891 14.0853 7.41707 14.2169 7.37296 14.2392C7.31964 14.2661 6.94815 14.0153 6.63509 13.6672C6.51426 13.5329 6.39723 13.3873 6.28846 13.2519C6.05037 12.9557 5.85202 12.7089 5.74068 12.7381C5.60674 12.7733 5.70806 13.0496 5.85694 13.3154C5.92656 13.4398 6.00846 13.5664 6.07936 13.676C6.18964 13.8464 6.27334 13.9758 6.24298 13.9918C6.20202 14.0132 5.8416 13.6617 5.59681 13.2188C5.45141 12.9557 5.32932 12.665 5.23047 12.4297C5.12328 12.1744 5.04344 11.9843 4.99086 11.9652C4.80819 11.8987 4.80819 12.2711 4.88145 12.8087C4.89101 12.8788 4.90524 12.9524 4.92277 13.0273C5.63327 15.3262 7.81588 17 10.3982 17C13.5569 17 16.1174 14.4956 16.1174 11.4063C16.1174 8.46602 13.7979 6.05558 10.8508 5.82991C10.8545 5.6914 10.9268 5.41672 10.9268 5.41672C10.9268 5.41672 11.4471 4.15793 11.4746 3.88894C11.4764 3.87109 11.4786 3.85169 11.4809 3.83103C11.5133 3.54039 11.5736 3 11.1087 3C10.8604 3 10.745 3.1847 10.6129 3.39593C10.5622 3.47703 10.5091 3.56204 10.445 3.642C9.9838 4.21799 9.20822 4.93727 8.76845 5.32048C7.83893 6.13042 6.92696 6.79608 6.39507 7.1843C6.15316 7.36086 5.98986 7.48008 5.93933 7.52933C5.55854 7.90055 4.19321 10.3633 4.19321 10.3633C4.19321 10.3633 3.75168 11.1534 3.90861 11.3137C4.06555 11.4739 4.44401 11.4372 4.44401 11.4372C4.44401 11.4372 9.52834 10.2708 9.98353 10.1788C10.1061 10.154 10.1926 10.1397 10.259 10.1288C10.4393 10.099 10.4717 10.0936 10.6753 9.9694ZM7.08052 8.4705C6.80761 8.72991 6.35498 9.34911 6.35498 9.34911C6.35498 9.34911 7.19619 9.40093 7.65947 8.96055C8.12279 8.52016 8.01664 7.76965 8.01664 7.76965C8.01664 7.76965 7.35341 8.21109 7.08052 8.4705Z" fill="#00ACC1"/>
</g>
<defs>
<clipPath id="clip0_9_886">
<rect width="14" height="14" fill="white" transform="translate(3 3)"/>
</clipPath>
</defs>
</svg>
