<svg width="20" height="20" viewBox="0 0 20 20" fill="none" xmlns="http://www.w3.org/2000/svg">
<rect width="20" height="20" rx="10" fill="#FAFAFA"/>
<g clip-path="url(#clip0_9_891)">
<path fill-rule="evenodd" clip-rule="evenodd" d="M7.17148 3.01596C7.16878 3.00815 7.1746 3 7.18286 3H12.1001C12.1053 3 12.11 3.00343 12.1116 3.00847L14.3701 10.3055C14.3725 10.3132 14.3667 10.321 14.3586 10.321H11.085C11.081 10.321 11.0782 10.3248 11.0793 10.3287L12.9567 16.9378C12.9604 16.9506 12.9436 16.959 12.9356 16.9483L5.6394 7.24558C5.63344 7.23765 5.6391 7.22633 5.64901 7.22633H8.62005C8.62417 7.22633 8.62707 7.22226 8.62571 7.21835L7.17148 3.01596Z" fill="#FDD835"/>
</g>
<defs>
<clipPath id="clip0_9_891">
<rect width="14" height="14" fill="white" transform="translate(3 3)"/>
</clipPath>
</defs>
</svg>
