<svg width="20" height="20" viewBox="0 0 20 20" fill="none" xmlns="http://www.w3.org/2000/svg">
<rect width="20" height="20" rx="10" fill="#FAFAFA"/>
<g clip-path="url(#clip0_9_906)">
<path fill-rule="evenodd" clip-rule="evenodd" d="M5.80891 14.101L8.05444 13.4499L9.99393 16.9961C9.99647 17.0007 10.0031 17.0007 10.0056 16.9961L11.9451 13.4499L14.1906 14.101C14.1957 14.1024 14.2003 14.0977 14.1988 14.0927L13.5476 11.8916L16.9961 10.0056C17.0007 10.0031 17.0007 9.99647 16.9961 9.99396L13.5192 8.09236L14.1988 5.79522C14.2003 5.79018 14.1957 5.78551 14.1906 5.78696L11.8924 6.45335L10.0056 3.00345C10.0031 2.99885 9.99647 2.99885 9.99396 3.00345L8.10713 6.45335L5.80891 5.78696C5.80388 5.78551 5.79921 5.79018 5.80071 5.79522L6.48034 8.09236L3.00345 9.99396C2.99885 9.99647 2.99885 10.0031 3.00345 10.0056L6.4519 11.8916L5.80071 14.0927C5.79921 14.0977 5.80388 14.1024 5.80891 14.101ZM7.55142 10.024L9.14226 10.894L10.0123 12.4848C10.0148 12.4894 10.0214 12.4894 10.024 12.4848L10.894 10.894L12.4848 10.024C12.4894 10.0214 12.4894 10.0148 12.4848 10.0123L10.894 9.14225L10.024 7.55145C10.0214 7.54683 10.0148 7.54683 10.0123 7.55145L9.14226 9.14225L7.55142 10.0123C7.54683 10.0148 7.54683 10.0214 7.55142 10.024Z" fill="#E91E63"/>
</g>
<defs>
<clipPath id="clip0_9_906">
<rect width="14" height="14" fill="white" transform="translate(3 3)"/>
</clipPath>
</defs>
</svg>
