<svg width="20" height="20" viewBox="0 0 20 20" fill="none" xmlns="http://www.w3.org/2000/svg">
<rect width="20" height="20" rx="10" fill="#FAFAFA"/>
<g clip-path="url(#clip0_9_942)">
<path fill-rule="evenodd" clip-rule="evenodd" d="M5.41252 4.16384C5.58195 3.4949 6.18797 2.99994 6.90957 2.99994C7.45084 2.99994 7.92709 3.27843 8.20282 3.69994H8.65435C8.93487 3.41205 9.32678 3.23327 9.76048 3.23327C10.3963 3.23327 10.9424 3.61759 11.1792 4.16661H11.5572C11.7941 4.01873 12.074 3.93327 12.3738 3.93327C13.0097 3.93327 13.5558 4.31759 13.7925 4.86661H14.8205C14.8293 4.86661 14.8375 4.86897 14.8446 4.8731C14.8915 4.8688 14.9391 4.86661 14.9871 4.86661C15.84 4.86661 16.5314 5.55799 16.5314 6.41085V11.0414L16.5314 11.0499L16.5314 11.0585V11.1252C16.5314 11.1535 16.5306 11.1816 16.5291 11.2096C16.4362 14.4219 13.5477 16.9999 9.99805 16.9999C6.38979 16.9999 3.46472 14.336 3.46472 11.0499C3.46472 9.46376 4.14626 8.02252 5.2572 6.9559C5.25443 8.50227 5.28055 10.1009 5.40095 10.0735C5.72335 10 5.47146 5.21039 5.41252 4.16384Z" fill="#E53935"/>
</g>
<defs>
<clipPath id="clip0_9_942">
<rect width="14" height="14" fill="white" transform="translate(3 3)"/>
</clipPath>
</defs>
</svg>
