<svg width="20" height="20" viewBox="0 0 20 20" fill="none" xmlns="http://www.w3.org/2000/svg">
<rect width="20" height="20" rx="10" fill="#FAFAFA"/>
<g clip-path="url(#clip0_9_917)">
<path fill-rule="evenodd" clip-rule="evenodd" d="M12.6319 13.8117C12.8049 13.1792 12.4692 11.879 12.4692 11.879C12.4692 11.879 12.2256 12.9382 11.8451 13.3297C11.5205 13.6637 11.1228 13.8953 10.5524 13.9562C11.0187 13.7297 11.3395 13.2574 11.3395 12.7115C11.3395 11.9451 10.7075 11.3239 9.92791 11.3239C9.14834 11.3239 8.51635 11.9451 8.51635 12.7115C8.51635 12.9207 8.56351 13.1192 8.64793 13.2972C8.16033 12.9087 8.08366 12.286 8.08366 12.286C8.08366 12.286 7.53919 14.5465 9.03943 15.6098C10.5396 16.6732 13.4785 15.7592 13.4785 15.7592C13.4785 15.7592 9.27281 18.7184 6.15633 15.4976C3.47175 12.7232 5.45565 9.07058 5.45565 9.07058C5.45565 9.07058 5.36998 9.40942 5.36998 9.80276C5.36998 10.1961 5.58324 10.4954 5.58324 10.4954C5.58324 10.4954 6.21939 9.15447 6.71448 8.60915C7.18304 8.09307 7.77041 7.67449 8.27775 7.31295C8.66827 7.03464 9.01138 6.79014 9.21629 6.56097C10.345 5.29894 9.65292 3.00018 9.65292 3.00018C9.65292 3.00018 10.9252 4.12182 11.2804 5.57044C11.4158 6.12262 11.3287 6.7509 11.2508 7.31273C11.1244 8.22481 11.0222 8.9618 11.9356 8.91398C13.4117 8.83668 12.129 6.56097 12.129 6.56097C12.129 6.56097 15.4773 8.32081 15.2272 11.3987C14.977 14.4765 11.5673 15.1763 11.5673 15.1763C11.5673 15.1763 12.4589 14.4442 12.6319 13.8117Z" fill="#FF9800"/>
</g>
<defs>
<clipPath id="clip0_9_917">
<rect width="14" height="14" fill="white" transform="translate(3 3)"/>
</clipPath>
</defs>
</svg>
