<svg width="20" height="20" viewBox="0 0 20 20" fill="none" xmlns="http://www.w3.org/2000/svg">
<rect width="20" height="20" rx="10" fill="#FAFAFA"/>
<g clip-path="url(#clip0_9_1012)">
<path fill-rule="evenodd" clip-rule="evenodd" d="M7.88666 16.0629C9.93752 16.0629 11.6933 14.9231 12.4182 13.3073C12.427 13.2876 9.508 14.0659 9.60108 13.7907C9.64264 13.6679 11.432 13.0142 12.7357 12.2517C13.485 11.8135 13.83 10.8858 13.83 10.8858C13.83 10.8858 12.5677 11.4987 11.9295 11.6542C10.6435 11.9676 9.51139 11.9338 9.51139 11.9012C9.51139 11.8306 11.3911 11.4734 14.0038 9.88132C15.2327 9.13245 15.5665 7.84254 15.5665 7.84254C15.5665 7.84254 14.2154 8.64732 13.3986 8.91302C11.4617 9.5431 9.69416 9.73298 9.69416 9.64772C9.69416 9.46517 11.2497 9.03743 12.8989 8.23831C13.7564 7.82282 14.499 7.27999 15.3596 6.67633C16.7677 5.68864 17 3.92957 17 3.92957C17 3.92957 15.6111 4.82535 14.9334 5.12283C12.1367 6.35033 9.6672 6.99423 7.88666 7.13362C5.19887 7.34406 3 9.21938 3 11.6542C3 14.0891 5.18783 16.0629 7.88666 16.0629Z" fill="#00BCD4"/>
</g>
<defs>
<clipPath id="clip0_9_1012">
<rect width="14" height="14" fill="white" transform="translate(3 3)"/>
</clipPath>
</defs>
</svg>
