<svg width="20" height="20" viewBox="0 0 20 20" fill="none" xmlns="http://www.w3.org/2000/svg">
<rect width="20" height="20" rx="10" fill="#FAFAFA"/>
<g clip-path="url(#clip0_9_997)">
<path fill-rule="evenodd" clip-rule="evenodd" d="M13.0885 16.9515C11.8257 17.0162 10.38 17.0162 9.88866 16.9515C6.05621 16.4473 3 13.6453 3 9.85781C3 6.07035 6.134 3 10 3C13.866 3 17 6.07035 17 9.85781C17 11.6193 16.3221 13.2257 15.2079 14.4403C14.9053 14.7701 15.3205 15.0014 15.7422 15.2364C16.1559 15.467 16.576 15.7011 16.3318 16.0351C16.0628 16.4032 14.6045 16.8739 13.0885 16.9515ZM9.01562 9.00059C9.01562 9.59236 8.52593 10.0721 7.92188 10.0721C7.31782 10.0721 6.82812 9.59236 6.82812 9.00059C6.82812 8.60369 7.04838 8.25722 7.37566 8.07202C7.3945 8.58802 7.81876 9.00056 8.33939 9.00056H9.01562V9.00059ZM12.4056 8.07202C12.3868 8.58802 11.9625 9.00056 11.4419 9.00056H10.7656V9.00059C10.7656 9.59236 11.2553 10.0721 11.8594 10.0721C12.4634 10.0721 12.9531 9.59236 12.9531 9.00059C12.9531 8.60369 12.7329 8.25722 12.4056 8.07202Z" fill="#8E24AA"/>
</g>
<defs>
<clipPath id="clip0_9_997">
<rect width="14" height="14" fill="white" transform="translate(3 3)"/>
</clipPath>
</defs>
</svg>
