<svg width="20" height="20" viewBox="0 0 20 20" fill="none" xmlns="http://www.w3.org/2000/svg">
<rect width="20" height="20" rx="10" fill="#FAFAFA"/>
<g clip-path="url(#clip0_9_932)">
<path fill-rule="evenodd" clip-rule="evenodd" d="M5.66379 15.0492C5.61574 15.004 5.56821 14.9579 5.52124 14.9109C3.04158 12.4313 3.04159 8.41096 5.52124 5.93132C8.00088 3.45165 15.902 3.28577 15.902 3.28577C15.902 3.28577 16.9805 12.4313 14.5009 14.9109C12.2986 17.1132 8.88113 17.3596 6.40699 15.6501L8.40057 13.2036L11.5875 12.5155L8.98602 12.2555L10.6393 10.5721L12.5212 10.1599L11.0331 9.71917L12.5212 7.03467L10.4045 9.40887L9.58712 8.25543L9.87486 10.1599L8.40057 11.8219L7.71717 9.71914V12.5155L5.66379 15.0492Z" fill="#8BC34A"/>
</g>
<defs>
<clipPath id="clip0_9_932">
<rect width="14" height="14" fill="white" transform="translate(3 3)"/>
</clipPath>
</defs>
</svg>
