<svg width="20" height="20" viewBox="0 0 20 20" fill="none" xmlns="http://www.w3.org/2000/svg">
<rect width="20" height="20" rx="10" fill="#FAFAFA"/>
<g clip-path="url(#clip0_9_982)">
<path fill-rule="evenodd" clip-rule="evenodd" d="M6.08339 15.0244C6.07959 15.0244 6.07694 15.0207 6.0782 15.0171L9.65243 4.9176C9.65323 4.91541 9.65531 4.91394 9.65763 4.91394H13.4732C13.4756 4.91394 13.4777 4.91542 13.4784 4.91763L16.9996 15.0171C17.0009 15.0207 16.9982 15.0244 16.9945 15.0244H6.1908H6.08339ZM3.0055 15.0639C3.00167 15.0639 2.99901 15.0601 3.00035 15.0565L5.66199 7.95063C5.66279 7.94847 5.66484 7.94705 5.66714 7.94705H7.97979C7.98362 7.94705 7.98627 7.95085 7.98496 7.95443L5.41124 15.0603C5.41045 15.0625 5.40838 15.0639 5.40606 15.0639H3.0055Z" fill="#FFB300"/>
</g>
<defs>
<clipPath id="clip0_9_982">
<rect width="14" height="14" fill="white" transform="translate(3 3)"/>
</clipPath>
</defs>
</svg>
