<svg width="20" height="20" viewBox="0 0 20 20" fill="none" xmlns="http://www.w3.org/2000/svg">
<rect width="20" height="20" rx="10" fill="#FAFAFA"/>
<g clip-path="url(#clip0_9_977)">
<path fill-rule="evenodd" clip-rule="evenodd" d="M15.4668 14.6259C15.4668 14.6259 13.7015 16.0417 10.1886 15.4558C7.52341 15.0113 6.10191 12.0733 6.10191 10.4941C6.10191 6.74992 8.87309 5.89787 10.7466 5.89787C12.6201 5.89787 13.8423 7.72443 13.8423 9.13865C13.8423 10.5529 12.842 11.7898 11.2854 11.7898C9.72887 11.7898 9.26786 10.697 9.26786 9.69236C9.26786 8.68769 10.0807 8.33373 10.822 8.33373C11.5633 8.33373 11.8172 8.96663 11.8172 9.51058C11.8172 10.0546 11.3951 10.2494 11.0431 10.2494C10.6911 10.2494 10.6563 10.0718 10.5215 9.8851C10.3868 9.69848 10.6934 8.99203 10.1886 8.99203C9.68384 8.99203 9.58975 9.80417 9.58975 9.80417C9.58975 9.80417 9.77377 11.3719 11.2854 11.3448C12.7971 11.3178 13.5143 10.1491 13.3059 8.99203C13.0975 7.83495 11.9745 6.60544 10.0038 6.85389C8.03298 7.10233 7.22834 9.09361 7.58302 11.2216C7.93769 13.3496 10.487 14.5826 12.4915 14.139C14.4959 13.6954 16.4923 12.2443 16.4923 8.56511C16.4923 4.8859 13.3059 2.67436 9.50632 3.03883C5.70677 3.40331 3.34818 6.72512 3.49915 10.7164C3.65012 14.7076 7.43733 16.8813 10.6398 16.9934C13.8423 17.1054 15.8055 15.2516 15.8055 15.2516C15.8055 15.2516 16.247 14.8579 16.0739 14.5504C15.9008 14.243 15.4668 14.6259 15.4668 14.6259Z" fill="#673AB7"/>
</g>
<defs>
<clipPath id="clip0_9_977">
<rect width="14" height="14" fill="white" transform="translate(3 3)"/>
</clipPath>
</defs>
</svg>
