<svg width="20" height="20" viewBox="0 0 20 20" fill="none" xmlns="http://www.w3.org/2000/svg">
<rect width="20" height="20" rx="10" fill="#FAFAFA"/>
<g clip-path="url(#clip0_9_967)">
<path fill-rule="evenodd" clip-rule="evenodd" d="M13.8044 9.69294C13.8036 9.69185 13.8033 9.69048 13.8035 9.68914L14.6967 4.48108C14.6971 4.47868 14.6992 4.47693 14.7016 4.47693H14.9843C14.9865 4.47693 14.9884 4.47834 14.989 4.48042L17.0013 10.8516C17.0019 10.8536 17.0012 10.8558 16.9996 10.857L15.5159 12.0154C15.5137 12.0171 15.5105 12.0167 15.5089 12.0144L13.8044 9.69294ZM2.97253 13.1455C2.97253 13.1477 2.97392 13.1496 2.97598 13.1503L6.03435 14.1502C6.03583 14.1507 6.03747 14.1505 6.03875 14.1496L12.8749 9.43008C12.8761 9.42929 12.8769 9.42806 12.877 9.42669L13.6101 4.50778C13.6106 4.50476 13.6082 4.50205 13.6052 4.50205H7.55004C7.54854 4.50205 7.54714 4.50271 7.54619 4.50386L2.97368 10.0199C2.97294 10.0208 2.97253 10.0219 2.97253 10.0231V13.1455ZM7.30879 14.405L10.65 15.4995C10.6515 15.5 10.6532 15.4998 10.6545 15.4988L14.6324 12.6454C14.6346 12.6439 14.6352 12.6408 14.6337 12.6386L13.1424 10.4195C13.1409 10.4172 13.1378 10.4166 13.1355 10.4182L7.30879 14.405Z" fill="#795548"/>
</g>
<defs>
<clipPath id="clip0_9_967">
<rect width="14" height="14" fill="white" transform="translate(3 3)"/>
</clipPath>
</defs>
</svg>
