<svg width="20" height="20" viewBox="0 0 20 20" fill="none" xmlns="http://www.w3.org/2000/svg">
<rect width="20" height="20" rx="10" fill="#FAFAFA"/>
<g clip-path="url(#clip0_9_962)">
<path fill-rule="evenodd" clip-rule="evenodd" d="M3.0014 9.96009C2.99954 9.95692 2.99953 9.95298 3.0014 9.94978L6.52174 3.93509C6.52357 3.93197 6.52693 3.93005 6.53054 3.93005H13.508C13.5117 3.93005 13.515 3.93199 13.5169 3.93514L16.9986 9.94983C17.0004 9.95298 17.0004 9.95689 16.9986 9.96003L13.5169 15.968C13.515 15.9711 13.5117 15.9731 13.508 15.9731H6.53054C6.52693 15.9731 6.52357 15.9711 6.52174 15.968L3.0014 9.96009ZM13.2434 9.95156C13.2434 11.7422 11.7918 13.1939 10.0011 13.1939C8.21041 13.1939 6.75875 11.7422 6.75875 9.95156C6.75875 8.16084 8.21041 6.70922 10.0011 6.70922C11.7918 6.70922 13.2434 8.16084 13.2434 9.95156Z" fill="#546E7A"/>
</g>
<defs>
<clipPath id="clip0_9_962">
<rect width="14" height="14" fill="white" transform="translate(3 3)"/>
</clipPath>
</defs>
</svg>
