<svg width="20" height="20" viewBox="0 0 20 20" fill="none" xmlns="http://www.w3.org/2000/svg">
<rect width="20" height="20" rx="10" fill="#FAFAFA"/>
<g clip-path="url(#clip0_9_881)">
<path fill-rule="evenodd" clip-rule="evenodd" d="M14.5438 12.4751C14.5438 14.9739 12.5105 16.9995 10.0024 16.9995C7.49419 16.9995 5.46094 14.9739 5.46094 12.4751C5.46094 10.0449 9.7567 3.37057 9.99229 3.00635C9.99768 2.99805 10.0071 2.99805 10.0124 3.00635C10.248 3.37057 14.5438 10.0449 14.5438 12.4751ZM9.24531 15.549C6.94078 15.0448 7.33513 12.492 7.33513 12.492C7.33513 12.492 7.96442 14.033 9.49154 14.5322C11.0186 15.0313 12.8641 14.2992 12.8641 14.2992C12.8641 14.2992 11.5498 16.0532 9.24531 15.549Z" fill="#2196F3"/>
</g>
<defs>
<clipPath id="clip0_9_881">
<rect width="14" height="14" fill="white" transform="translate(3 3)"/>
</clipPath>
</defs>
</svg>
