<svg width="16" height="14" viewBox="0 0 16 14" fill="none" xmlns="http://www.w3.org/2000/svg">
<path d="M13.6109 1.82455C13.2704 1.48389 12.8661 1.21365 12.4211 1.02927C11.9761 0.844898 11.4992 0.75 11.0175 0.75C10.5359 0.75 10.0589 0.844898 9.61396 1.02927C9.16898 1.21365 8.7647 1.48389 8.42419 1.82455L7.71753 2.53122L7.01086 1.82455C6.32307 1.13676 5.39022 0.750357 4.41753 0.750357C3.44484 0.750357 2.51199 1.13676 1.82419 1.82455C1.1364 2.51235 0.75 3.44519 0.75 4.41788C0.75 5.39057 1.1364 6.32342 1.82419 7.01122L2.53086 7.71788L7.71753 12.9045L12.9042 7.71788L13.6109 7.01122C13.9515 6.67071 14.2218 6.26643 14.4061 5.82145C14.5905 5.37648 14.6854 4.89954 14.6854 4.41788C14.6854 3.93623 14.5905 3.45929 14.4061 3.01431C14.2218 2.56934 13.9515 2.16505 13.6109 1.82455V1.82455Z" stroke="#FAFAFA" stroke-width="1.5" stroke-linecap="round" stroke-linejoin="round"/>
</svg>
